<svg width="23" height="24" viewBox="0 0 23 24" fill="none" xmlns="http://www.w3.org/2000/svg">
<path d="M5.93491 11.8574V3.5957C5.93491 1.47656 7.02866 0.373047 9.1185 0.373047H13.5814V7.77539C13.5814 8.99609 14.1673 9.58203 15.388 9.58203H22.7122V18.3223C22.7122 20.4316 21.6283 21.5352 19.5287 21.5352H11.4427C12.0189 20.5781 12.3509 19.4551 12.3509 18.2734C12.3509 14.7578 9.4603 11.8672 5.93491 11.8574ZM15.5736 8.15625C15.2025 8.15625 15.0072 7.9707 15.0072 7.58984V0.470703C15.4564 0.529297 15.8958 0.861328 16.3841 1.35938L21.7259 6.76953C22.2337 7.28711 22.556 7.70703 22.6146 8.15625H15.5736ZM5.93491 23.3125C3.181 23.3125 0.905609 21.0371 0.905609 18.2734C0.905609 15.5195 3.181 13.2441 5.93491 13.2441C8.69858 13.2441 10.974 15.5195 10.974 18.2734C10.974 21.0273 8.66928 23.3125 5.93491 23.3125ZM2.74155 18.2734C2.75131 18.6836 3.01498 18.9473 3.41537 18.9473H5.26108V20.8027C5.26108 21.2031 5.53452 21.4766 5.93491 21.4766C6.34506 21.4766 6.60873 21.2031 6.60873 20.8027V18.9473H8.45444C8.85483 18.9473 9.12827 18.6836 9.12827 18.2734C9.12827 17.873 8.85483 17.6094 8.45444 17.6094H6.60873V15.7637C6.60873 15.3633 6.34506 15.0898 5.93491 15.0898C5.53452 15.0898 5.26108 15.3633 5.26108 15.7637V17.6094H3.41537C3.01498 17.6094 2.74155 17.873 2.74155 18.2734Z" fill="#2C40F3"/>
</svg>
